<?xml version="1.0" encoding="UTF-8" standalone="no"?>
<!-- Created with Inkscape (http://www.inkscape.org/) -->

<svg
   width="178.46172mm"
   height="39.819794mm"
   viewBox="0 0 178.46172 39.819794"
   version="1.1"
   id="svg1"
   xmlns="http://www.w3.org/2000/svg"
   xmlns:svg="http://www.w3.org/2000/svg">
  <defs
     id="defs1" />
  <g
     id="layer1"
     transform="translate(-20.902088,-66.410419)">
    <path
       style="fill:#ffffff;stroke-width:0.264583"
       d="m 199.36364,85.989617 v -1.455208 h -3.43959 -3.43958 v -6.482292 -6.482292 h -1.72067 -1.72066 l 0.0177,7.9375 0.0177,7.9375 h 5.14263 5.14263 z"
       id="path23" />
    <path
       style="fill:#ffffff;stroke-width:0.264583"
       d="m 186.66364,85.989617 v -1.455208 h -3.43959 -3.43958 v -6.482292 -6.482292 h -1.5875 -1.5875 v 7.9375 7.9375 h 5.02708 5.02709 z"
       id="path22" />
    <path
       id="path20"
       style="fill:#ffffff;stroke-width:0.264583"
       d="m 167.79972,71.547569 -1.69757,0.077 -1.69807,0.07752 -1.46142,3.836458 c -0.80391,2.110052 -2.15308,5.652161 -2.99776,7.871354 l -1.5358,4.034896 h 1.67068 1.67072 l 0.45061,-1.389063 c 0.24786,-0.763984 0.54059,-1.48754 0.65061,-1.608172 0.11004,-0.120634 1.60377,-0.233478 3.3197,-0.250629 l 3.1202,-0.03101 0.58603,1.57303 0.586,1.573548 1.78334,0.07907 c 1.38092,0.06117 1.75112,0.0016 1.64127,-0.264584 -0.25919,-0.627642 -4.17351,-10.622594 -5.13871,-13.121163 z m -1.68206,3.934126 0.50797,1.285195 c 0.27921,0.706898 0.78888,2.029333 1.13276,2.938838 l 0.62529,1.653646 h -2.2655 -2.26549 l 0.18137,-0.463021 c 0.0997,-0.254661 0.60958,-1.577096 1.13276,-2.938838 z" />
    <path
       style="fill:#ffffff;stroke-width:0.264583"
       d="m 145.02608,84.997429 c 0.41269,-1.346067 1.17938,-3.757083 1.70373,-5.357812 l 0.95337,-2.910417 1.48196,4.630209 c 0.81508,2.546614 1.56186,4.95763 1.65955,5.357812 l 0.17758,0.727604 h 1.51781 1.51784 l 0.5438,-1.785937 c 0.29908,-0.982266 1.33326,-4.345781 2.29817,-7.474479 0.96491,-3.128698 1.81824,-5.896901 1.89627,-6.151563 l 0.14189,-0.463021 h -1.69518 -1.69519 l -1.36535,5.101104 c -0.75094,2.805607 -1.36536,5.246388 -1.36536,5.423958 0,0.891204 -0.46225,0.09962 -1.01034,-1.730142 -0.33739,-1.126424 -1.08855,-3.572071 -1.6692,-5.434769 l -1.05572,-3.386725 -1.35239,0.07943 -1.35236,0.07943 -1.54138,5.027083 c -0.84778,2.764896 -1.54192,5.199724 -1.5425,5.410729 -0.003,1.061001 -0.5865,-0.596413 -1.8815,-5.344583 l -1.42518,-5.225521 h -1.65449 c -0.90999,0 -1.65452,0.05299 -1.65452,0.117745 0,0.06476 0.72149,2.475775 1.60329,5.357813 0.88181,2.882037 1.95847,6.400927 2.3926,7.819755 l 0.78933,2.579687 h 1.41656 1.41655 z"
       id="path19" />
    <path
       style="fill:#ffffff;stroke-width:0.264583"
       d="m 136.99275,85.893713 -2.2e-4,-1.418822 -3.34256,0.04309 -3.34258,0.04309 v -6.495618 -6.495622 h -1.5875 -1.5875 v 7.94334 7.943336 l 4.93027,-0.07198 4.93027,-0.07198 z"
       id="path18" />
    <path
       style="fill:#ffffff;stroke-width:0.264583"
       d="m 123.95731,85.923471 -1.1e-4,-1.521354 -3.83637,0.04256 -3.83641,0.04256 v -1.828501 -1.828501 h 3.5719 3.5719 v -1.455201 -1.455209 h -3.5719 -3.5719 v -1.719791 -1.719792 h 3.83649 3.83648 v -1.455208 -1.455209 h -5.42399 -5.42399 v 7.9375 7.9375 h 5.42399 5.42399 z"
       id="path17" />
    <path
       style="fill:#ffffff;stroke-width:0.264583"
       d="m 101.31064,84.653048 1.82733,-2.78243 1.84895,2.787105 1.84892,2.787102 h 1.82317 1.82318 l -0.26258,-0.463021 c -0.14443,-0.254661 -1.32488,-2.058815 -2.62322,-4.009228 l -2.36066,-3.546211 2.24633,-3.465247 c 1.23548,-1.905889 2.43018,-3.67361 2.65492,-3.928272 l 0.4086,-0.463021 h -1.96835 -1.96833 l -0.5011,0.859896 c -0.27559,0.472943 -1.05984,1.660396 -1.74276,2.638785 l -1.24167,1.778889 -1.68774,-2.572639 -1.687727,-2.572639 -1.916006,-0.07769 -1.91598,-0.07769 2.511292,3.84249 c 1.381231,2.113368 2.511321,3.939106 2.511321,4.057195 0,0.118089 -1.177847,1.96604 -2.617445,4.106556 l -2.617417,3.891851 1.889813,-0.0047 1.889839,-0.0047 z"
       id="path16" />
    <path
       style="fill:#ffffff;stroke-width:0.264583"
       d="m 93.265612,79.507325 v -7.9375 h -1.5875 -1.5875 v 7.9375 7.9375 h 1.5875 1.5875 z"
       id="path15" />
    <path
       id="path13"
       style="fill:#ffffff;stroke-width:0.264583"
       d="m 75.538555,71.569791 v 7.9375 7.9375 h 1.603005 1.603004 l -0.0522,-2.579688 -0.05218,-2.579687 2.392601,-0.03049 c 1.907169,-0.02416 2.64541,-0.152262 3.63855,-0.633034 1.427586,-0.691086 2.631016,-2.338776 2.908855,-3.98322 0.235956,-1.396627 -0.448706,-3.375303 -1.530138,-4.421952 -1.465924,-1.418772 -2.389849,-1.646928 -6.666256,-1.646928 z m 3.213762,2.856156 2.077402,0.09457 2.076873,0.09405 0.68162,0.64027 c 0.525277,0.493461 0.681593,0.898668 0.681593,1.765784 v 1.125514 l -0.697098,0.548286 -0.697124,0.548288 -2.147146,5.29e-4 -2.147173,5.29e-4 0.08578,-2.408637 z" />
    <path
       style="fill:#de5c10;fill-opacity:1;stroke-width:0.264583"
       d="m 108.19734,103.85559 c 0.76891,-0.29235 1.73467,-1.71113 1.73615,-2.5506 0.003,-1.23064 -1.13271,-2.071475 -3.50477,-2.596651 -0.40018,-0.0886 -0.72761,-0.335153 -0.72761,-0.547889 0,-0.54769 1.26842,-0.798047 2.22119,-0.438417 l 0.80495,0.303829 0.37521,-0.375211 c 0.93469,-0.93468 -1.0485,-2.179555 -2.95822,-1.856912 -1.27744,0.215821 -2.55981,1.373383 -2.55981,2.310678 0,0.993986 0.95171,1.993603 2.19703,2.307643 2.31293,0.58328 2.93745,1.22558 1.78916,1.84012 -0.72862,0.38994 -1.44771,0.3403 -2.52719,-0.17447 l -0.94023,-0.44836 -0.42786,0.42785 c -0.23733,0.23732 -0.35462,0.61864 -0.26342,0.8563 0.37204,0.96949 3.23228,1.53258 4.78542,0.94209 z"
       id="path12" />
    <path
       id="path10"
       style="fill:#de5c10;fill-opacity:1;stroke-width:0.264583"
       d="m 85.934828,95.911457 -0.720381,0.667142 c -1.24415,1.153025 -0.768615,1.447374 1.701191,1.05265 1.085374,-0.173463 2.201598,0.321609 2.339393,1.037146 l 0.09559,0.494027 -1.058333,-0.168982 c -1.518946,-0.242892 -2.618714,0.05247 -3.509327,0.943095 -1.653752,1.653745 -0.493052,4.177005 1.921324,4.177005 0.633677,0 1.404409,-0.17707 1.713072,-0.39326 l 0.561207,-0.39274 0.157083,0.40928 c 0.110887,0.28891 0.440108,0.38467 1.119849,0.32659 l 0.962713,-0.0822 -0.04961,-3.02204 c -0.02728,-1.662168 -0.169757,-3.245908 -0.316257,-3.519681 -0.492627,-0.920461 -1.854226,-1.525987 -3.434926,-1.52704 z m 3.36206,4.736143 v 0.41031 c 0,1.20269 -2.409348,1.99401 -3.1936,1.04903 -0.629364,-0.75834 0.02704,-1.29092 1.699631,-1.37976 z" />
    <path
       style="fill:#de5c10;fill-opacity:1;stroke-width:0.264583"
       d="m 82.417775,103.05524 v -1.05833 h -2.248959 -2.248958 v -4.497918 -4.497917 h -1.190625 -1.190625 v 5.55625 5.556255 h 3.439583 3.439584 z"
       id="path9" />
    <path
       id="path7"
       style="fill:#de5c10;fill-opacity:1;stroke-width:0.264583"
       d="m 94.059388,93.001041 v 5.55625 5.556249 h 0.648547 c 0.356553,0 0.761524,-0.20283 0.900192,-0.45062 l 0.252201,-0.45062 0.405659,0.33693 c 1.07143,0.8892 2.699782,0.91482 3.878813,0.0615 2.04786,-1.48216 2.22111,-5.566583 0.30851,-7.270359 -0.881116,-0.784908 -2.537937,-0.978533 -3.626115,-0.423746 l -0.915723,0.467153 v -1.691367 -1.69137 H 94.98543 Z m 4.051962,4.5036 c 0.352081,0.0052 0.67601,0.0679 0.869182,0.196887 0.995469,0.664689 1.104158,3.073972 0.184494,4.090192 -0.555228,0.61351 -1.988793,0.60723 -2.548175,-0.0109 -0.879899,-0.97227 -0.892837,-2.998366 -0.02487,-3.866429 0.26752,-0.267529 0.932471,-0.418413 1.51929,-0.409795 z" />
    <path
       id="path5"
       style="fill:#ffffff;stroke-width:0.264583"
       d="m 21.02147,66.410416 -0.05942,19.909896 -0.05996,19.909898 h 7.602118 7.602144 l 0.07078,-6.346386 0.0708,-6.346383 5.820833,-0.07131 5.820833,-0.07183 1.117256,-0.595313 c 1.429174,-0.76128 2.747804,-2.081982 3.389445,-3.395141 0.389705,-0.79751 0.528241,-1.775383 0.60669,-4.291729 L 53.10427,81.853402 52.281072,80.18115 c -0.858811,-1.744501 -1.871027,-2.713365 -3.580659,-3.427695 l -1.007692,-0.421164 h -8.035184 -8.03463 l -0.06874,12.633854 -0.06874,12.633855 -2.976564,0.0749 -2.976564,0.0749 V 86.395242 71.040624 h 15.829022 15.829015 l 0.641297,0.682647 0.641297,0.682643 0.07493,14.66319 0.07443,14.663186 H 53.057756 47.492722 V 99.604771 97.47777 l -2.182812,0.07648 -2.182813,0.077 -0.07287,4.29948 -0.07234,4.29948 H 53.042252 63.103139 V 88.889665 71.548603 l -0.558112,-1.113626 c -0.766075,-1.528574 -1.716855,-2.49206 -3.278347,-3.321761 l -1.322916,-0.7028 H 39.482885 Z m 15.094169,14.419792 h 5.388319 5.388292 l 0.678498,0.533818 c 0.521335,0.410088 0.720698,0.87014 0.859896,1.984375 0.273314,2.187413 -0.06948,4.310578 -0.816981,5.058087 l -0.625819,0.625803 h -5.436367 -5.435838 v -4.101042 z" />
  </g>
</svg>
